HIERARCHY
ROOT Hips
{
	OFFSET	0.00	0.00	0.00
	CHANNELS 6 Xposition Yposition Zposition Zrotation Xrotation Yrotation
	JOINT LeftUpperLeg
	{
		OFFSET	 0.100000	-0.066564	-0.000554
		CHANNELS 3 Zrotation Xrotation Yrotation
		JOINT LeftLowerLeg
		{
			OFFSET	 0.002447	-0.463436	-0.005172
			CHANNELS 3 Zrotation Xrotation Yrotation
			JOINT LeftFoot
			{
				OFFSET	-0.002447	-0.420480	-0.020576
				CHANNELS 3 Zrotation Xrotation Yrotation
				JOINT LeftToes
				{
					OFFSET	 0.003734	-0.104922	 0.126407
					CHANNELS 3 Zrotation Xrotation Yrotation
					End Site
					{
						OFFSET	 0.000000	 0.000000	 0.059955
					}
				}
			}
		}
	}
	JOINT RightUpperLeg
	{
		OFFSET	-0.100000	-0.066564	-0.000554
		CHANNELS 3 Zrotation Xrotation Yrotation
		JOINT RightLowerLeg
		{
			OFFSET	-0.002447	-0.463436	-0.005146
			CHANNELS 3 Zrotation Xrotation Yrotation
			JOINT RightFoot
			{
				OFFSET	 0.002447	-0.420479	-0.020602
				CHANNELS 3 Zrotation Xrotation Yrotation
				JOINT RightToes
				{
					OFFSET	-0.003734	-0.104922	 0.126407
					CHANNELS 3 Zrotation Xrotation Yrotation
					End Site
					{
						OFFSET	-0.000000	 0.000000	 0.059955
					}
				}
			}
		}
	}
	JOINT Spine
	{
		OFFSET	 0.000000	 0.099235	-0.012273
		CHANNELS 3 Zrotation Xrotation Yrotation
		JOINT Chest
		{
			OFFSET	-0.000001	 0.116455	-0.014223
			CHANNELS 3 Zrotation Xrotation Yrotation
			JOINT UpperChest
			{
				OFFSET	 0.000001	 0.133602	-0.016265
				CHANNELS 3 Zrotation Xrotation Yrotation
				JOINT LeftShoulder
				{
					OFFSET	 0.061058	 0.091105	 0.007056
					CHANNELS 3 Zrotation Xrotation Yrotation
					JOINT LeftUpperArm
					{
						OFFSET	 0.133942	-0.002659	-0.026009
						CHANNELS 3 Zrotation Xrotation Yrotation
						JOINT LeftLowerArm
						{
							OFFSET	 0.274047	 0.000000	 0.000000
							CHANNELS 3 Zrotation Xrotation Yrotation
							JOINT LeftHand
							{
								OFFSET	 0.276145	 0.000000	 0.000000
								CHANNELS 3 Zrotation Xrotation Yrotation
								End Site
								{
									OFFSET	 0.165687	 0.000000	 0.000000
								}
							}
						}
					}
				}
				JOINT Neck
				{
					OFFSET	 0.000000	 0.150325	 0.007929
					CHANNELS 3 Zrotation Xrotation Yrotation
					JOINT Head
					{
						OFFSET	 0.000000	 0.103218	 0.031424
						CHANNELS 3 Zrotation Xrotation Yrotation
						End Site
						{
							OFFSET	 0.000000	 0.061931	 0.018855
						}
					}
				}
				JOINT RightShoulder
				{
					OFFSET	-0.061057	 0.091105	 0.007056
					CHANNELS 3 Zrotation Xrotation Yrotation
					JOINT RightUpperArm
					{
						OFFSET	-0.133943	-0.002660	-0.026009
						CHANNELS 3 Zrotation Xrotation Yrotation
						JOINT RightLowerArm
						{
							OFFSET	-0.274047	 0.000000	 0.000000
							CHANNELS 3 Zrotation Xrotation Yrotation
							JOINT RightHand
							{
								OFFSET	-0.276145	 0.000000	 0.000000
								CHANNELS 3 Zrotation Xrotation Yrotation
								End Site
								{
									OFFSET	-0.165687	 0.000000	 0.000000
								}
							}
						}
					}
				}
			}
		}
	}
}
MOTION
Frames:    15
Frame Time: 0.03333334
-0.240730	 1.043400	-0.491580	 0.643442	-0.250036	 11.424640	-7.775665	-14.167370	 8.213806	 0.001902	 0.092698	 0.000115	 14.088920	 16.840300	 1.963096	 0.000142	 0.407646	 0.764548	-5.344425	-6.896500	-3.113555	 0.373850	 20.979820	-0.059563	 2.609550	-13.025940	-12.376460	 0.000121	 0.352006	-0.000251	 1.534140	 0.432245	-0.718207	-0.000000	 0.000000	 0.000000	 3.079072	 0.844764	-1.449729	 1.085721	-3.763271	 6.844591	-80.814720	-13.594220	 4.660367	-30.328520	 32.761000	-67.121840	 46.907310	-6.566532	-38.747890	-0.579422	-3.266367	 5.935038	-0.772278	-3.055757	 5.899395	 1.393484	 4.349045	-22.609460	 84.265920	 4.678984	 14.134920	 19.926290	 36.402210	 78.225270	-47.064390	-5.609338	 27.862020
-0.228240	 1.041010	-0.493550	 0.141411	-0.302340	 11.645730	-8.059387	-14.011920	 4.310802	 0.001740	 0.077520	-0.000639	 11.756730	 16.302810	 6.623973	-0.001331	 0.377235	 0.444382	-5.698846	-7.317988	-3.308587	 0.445466	 21.857200	-0.076397	 3.429746	-13.262720	-12.532660	-0.001017	 0.353620	-0.000250	 1.552444	 0.441511	-0.756898	-0.000000	 0.000000	 0.000000	 3.115061	 0.865616	-1.527194	 0.781070	-3.349967	 6.439744	-80.910780	-13.360960	 4.061513	-30.748250	 32.703780	-66.187580	 47.465280	-6.115743	-37.641050	-0.919569	-3.331211	 5.654853	-0.720200	-3.369679	 5.676064	 1.418422	 4.554174	-23.188800	 84.198990	 4.238445	 14.762700	 19.956050	 36.366840	 78.216440	-47.133430	-5.442311	 27.653340
-0.228240	 1.041010	-0.493550	 0.141411	-0.302340	 11.645730	-8.059387	-14.011920	 4.310802	 0.001740	 0.077520	-0.000639	 11.756730	 16.302810	 6.623973	-0.001331	 0.377235	 0.444382	-5.698846	-7.317988	-3.308587	 0.445466	 21.857200	-0.076397	 3.429746	-13.262720	-12.532660	-0.001017	 0.353620	-0.000250	 1.552444	 0.441511	-0.756898	-0.000000	 0.000000	 0.000000	 3.115061	 0.865616	-1.527194	 0.781070	-3.349967	 6.439744	-80.910780	-13.360960	 4.061513	-30.748250	 32.703780	-66.187580	 47.465280	-6.115743	-37.641050	-0.919569	-3.331211	 5.654853	-0.720200	-3.369679	 5.676064	 1.418422	 4.554174	-23.188800	 84.198990	 4.238445	 14.762700	 19.956050	 36.366840	 78.216440	-47.133430	-5.442311	 27.653340
-0.219020	 1.038730	-0.494030	 0.223795	 0.252491	 11.851130	-8.866758	-14.380940	 3.362977	 0.000498	 0.082521	 0.000217	 10.692710	 15.782930	 8.020441	-0.000560	 0.367312	 0.216221	-6.727955	-8.304667	-4.688908	 0.424595	 23.068600	-0.077610	 3.489426	-13.710440	-11.393970	-0.000096	 0.349617	 0.000689	 1.344286	 0.088980	-0.806329	-0.000000	 0.000000	 0.000000	 2.693367	 0.160053	-1.615270	 0.683217	-3.634493	 6.458627	-80.728030	-12.966630	 3.918051	-31.001660	 32.484530	-65.217140	 47.800000	-6.413242	-37.118120	-0.956927	-3.932990	 5.513996	-0.548711	-3.217345	 5.616251	 1.565760	 4.158458	-23.499730	 84.464860	 4.089652	 14.663540	 19.960230	 36.148990	 77.843420	-46.787280	-5.416518	 27.004010
-0.212380	 1.037040	-0.493530	-0.082452	 0.385471	 11.797740	-8.997114	-14.424040	 2.617341	 0.000895	 0.083364	-0.000471	 10.557020	 15.296380	 8.920031	-0.000626	 0.363267	 0.154144	-7.061454	-8.702008	-5.749158	 0.392431	 23.724450	-0.074728	 3.497468	-13.926520	-10.341480	-0.000151	 0.346423	 0.000301	 1.379791	-0.110552	-0.807286	-0.000000	 0.000000	 0.000000	 2.762359	-0.241983	-1.614652	 1.182360	-2.970729	 6.689815	-80.618130	-12.722760	 4.041555	-31.225030	 32.504880	-64.781350	 48.112690	-6.486178	-36.544490	-0.520570	-3.465286	 5.715753	-0.601463	-3.065066	 5.720445	 1.775119	 4.240923	-22.846930	 84.673900	 3.738930	 13.736170	 19.963100	 35.865730	 77.818930	-46.490250	-5.376913	 26.692390
-0.204720	 1.035430	-0.494140	-0.037358	 0.561744	 11.575420	-9.514388	-14.508210	 3.557993	 0.001536	 0.083193	 0.000761	 11.025390	 14.714660	 8.172335	-0.000425	 0.362048	 0.113872	-7.787786	-9.094341	-6.180958	 0.462229	 24.266470	-0.091558	 3.433126	-14.248600	-9.501151	-0.000132	 0.342395	-0.000625	 1.343381	-0.124322	-0.744183	-0.000000	 0.000000	 0.000000	 2.690719	-0.266446	-1.488633	 1.018775	-2.504051	 6.907800	-80.605140	-12.616290	 4.009546	-31.351480	 32.512250	-64.723400	 48.033180	-6.596533	-36.111970	-0.857290	-3.233539	 6.018126	-0.793111	-3.206029	 5.891928	 1.359085	 4.584726	-22.496770	 84.813690	 3.712934	 13.382610	 19.781490	 35.767830	 78.127370	-46.427490	-5.501009	 26.766520
-0.197390	 1.033980	-0.494890	-0.045251	 0.597820	 11.724040	-10.029440	-14.439230	 4.048001	 0.000948	 0.082633	-0.000475	 11.272570	 14.047960	 7.710659	 0.000018	 0.358448	 0.042547	-8.452932	-9.318978	-7.034931	 0.488288	 24.836440	-0.100983	 3.562959	-14.387310	-8.811482	 0.000654	 0.339212	-0.000469	 1.329150	-0.037273	-0.777169	-0.000000	 0.000000	 0.000000	 2.663453	-0.091711	-1.555604	 1.058209	-2.261103	 6.795085	-80.708170	-12.653230	 3.764922	-31.268370	 32.534550	-64.732180	 47.996660	-6.660659	-36.234120	-1.047639	-3.286423	 5.970354	-1.011678	-3.461749	 6.034571	 1.221999	 4.608802	-22.529740	 84.730000	 3.715030	 13.268160	 19.559420	 35.753170	 78.491420	-46.642450	-5.591551	 26.779530
-0.190290	 1.032620	-0.495390	 0.081076	 0.679913	 11.728000	-10.631220	-14.405130	 3.650100	 0.001387	 0.091674	 0.000416	 11.392420	 13.691170	 8.176391	 0.000003	 0.357743	-0.000814	-9.262629	-9.546297	-7.976603	 0.477735	 25.357690	-0.102022	 3.841700	-14.490420	-7.894905	-0.000343	 0.337591	-0.000667	 1.239573	 0.005352	-0.748723	-0.000000	 0.000000	 0.000000	 2.482396	-0.005496	-1.499195	 0.966394	-2.309843	 6.973570	-80.900970	-12.877200	 3.604650	-31.129000	 32.432360	-64.896890	 47.982090	-6.359867	-36.352840	-1.319008	-3.553115	 6.176467	-1.140614	-3.633895	 6.118909	 0.988055	 4.558757	-22.390600	 84.669150	 3.722832	 13.445500	 19.501800	 35.746470	 78.644620	-46.753070	-5.420310	 26.674870
-0.181300	 1.030840	-0.494740	-0.038678	 0.629621	 11.819690	-11.094330	-14.195530	 3.770076	 0.001456	 0.091805	-0.000749	 11.838300	 13.166790	 7.994615	 0.000864	 0.356757	 0.000400	-10.039480	-9.558411	-9.501184	 0.481676	 25.883690	-0.105118	 4.222920	-14.538880	-6.497469	 0.000101	 0.335173	 0.000755	 1.151155	-0.046124	-0.629500	-0.000000	 0.000000	 0.000000	 2.304765	-0.104989	-1.260501	 1.416407	-1.924008	 6.315184	-81.341910	-13.478220	 3.350280	-30.977070	 32.315700	-64.846950	 48.035800	-6.540310	-36.331270	-1.148920	-3.652516	 6.238893	-0.989021	-3.544976	 6.000729	 1.256732	 4.588646	-22.495090	 84.528010	 3.626019	 13.624360	 19.503770	 35.717230	 78.517550	-46.752980	-5.435451	 26.672500
-0.174710	 1.029650	-0.494180	-0.157293	 0.695682	 11.823970	-11.412480	-14.146880	 3.939748	 0.000528	 0.083540	 0.000646	 12.153800	 12.802220	 7.835068	-0.000491	 0.357122	 0.000869	-10.585650	-9.640093	-10.576700	 0.476107	 26.184730	-0.104650	 4.594050	-14.459640	-5.528535	 0.000437	 0.333624	 0.000167	 1.096887	-0.160744	-0.509556	-0.000000	 0.000000	 0.000000	 2.197580	-0.330378	-1.015575	 1.611031	-1.824524	 6.072939	-81.343680	-13.381460	 3.273280	-31.050300	 32.151710	-64.703570	 48.020650	-6.813014	-36.185680	-0.880228	-3.538675	 6.057472	-0.792155	-3.307524	 5.814562	 1.524900	 4.632953	-22.718660	 84.300900	 3.681917	 13.661010	 19.589440	 35.296020	 78.066680	-45.707240	-5.150760	 27.278740
-0.167930	 1.028600	-0.493820	-0.274965	 0.799645	 11.950590	-11.784830	-14.129400	 3.714829	 0.001413	 0.078547	 0.000274	 12.495710	 12.526190	 7.888932	 0.000246	 0.356146	 0.000151	-11.084640	-9.719227	-11.412520	 0.490513	 26.424970	-0.110788	 4.777065	-14.361860	-4.977394	 0.000030	 0.330445	-0.000847	 1.078227	-0.279994	-0.446851	-0.000000	 0.000000	 0.000000	 2.157232	-0.567275	-0.887944	 1.672010	-1.656438	 5.801731	-81.314830	-13.349190	 3.142450	-31.143510	 32.098860	-64.542560	 48.027910	-7.003304	-36.132310	-0.632440	-3.248736	 5.630039	-0.602881	-3.010449	 5.504853	 1.518358	 4.767061	-22.901820	 84.248230	 3.734794	 13.542940	 19.567420	 34.959880	 78.062130	-44.906540	-4.533275	 27.391580
-0.161090	 1.027640	-0.493310	-0.369359	 0.757940	 12.234590	-12.179300	-13.956160	 3.592317	 0.001239	 0.092709	 0.000363	 12.883940	 12.306580	 7.694410	-0.000470	 0.356337	-0.000413	-11.533200	-9.570931	-12.038610	 0.531090	 26.596820	-0.120418	 4.840991	-14.335600	-4.707935	-0.000221	 0.327224	-0.000056	 1.073280	-0.331615	-0.478293	-0.000000	 0.000000	 0.000000	 2.148784	-0.673668	-0.951769	 1.639692	-1.403631	 5.620165	-81.392650	-13.436480	 3.046611	-31.030640	 32.244530	-64.517060	 48.012830	-6.980866	-36.248480	-0.510987	-2.930763	 5.174801	-0.500712	-2.825671	 5.239320	 1.477911	 4.963742	-23.074020	 84.434320	 3.634851	 13.367100	 19.536270	 34.877700	 78.128590	-45.093960	-4.121690	 27.305430
-0.154410	 1.026720	-0.492340	-0.391492	 0.697021	 12.568750	-12.631420	-13.692980	 3.540258	 0.000735	 0.077852	 0.000138	 13.326510	 12.019710	 7.382036	-0.000599	 0.355545	-0.000529	-12.003900	-9.346422	-12.627820	 0.529879	 26.760170	-0.120472	 4.895985	-14.319540	-4.485261	 0.000653	 0.321630	-0.000011	 1.007555	-0.425372	-0.494049	-0.000000	 0.000000	 0.000000	 2.012954	-0.860623	-0.983458	 1.573374	-1.224115	 5.581176	-81.637040	-13.661180	 2.926672	-30.812030	 32.231800	-64.697970	 47.747180	-6.685590	-36.091950	-0.528894	-2.782874	 4.799429	-0.394691	-2.594959	 4.830697	 1.289451	 5.153303	-23.109450	 84.509860	 3.492950	 13.278180	 19.613930	 34.791310	 78.120750	-45.381630	-4.222668	 27.318310
-0.139240	 1.024780	-0.489930	-0.522716	 0.788560	 12.892910	-13.519040	-13.381590	 3.266724	 0.000805	 0.083864	-0.001074	 14.156870	 11.448040	 7.197362	 0.000145	 0.355354	 0.000516	-12.954550	-9.102576	-13.425160	 0.571662	 26.944720	-0.132388	 5.198780	-14.061140	-4.119362	-0.000468	 0.313564	 0.000509	 0.965920	-0.777205	-0.502666	-0.000000	 0.000000	 0.000000	 1.926721	-1.564123	-0.994210	 1.531228	-0.780953	 5.896039	-82.549280	-14.637230	 2.319556	-30.297980	 33.169860	-63.504420	 47.767480	-6.606986	-36.237660	-0.169566	-2.164395	 3.431632	-0.253174	-1.776330	 3.465271	 1.393344	 5.538923	-23.227180	 84.396710	 3.326543	 12.676530	 19.710170	 34.867420	 77.799060	-45.360720	-5.378392	 27.500170
-0.135350	 1.024350	-0.489120	-0.670795	 0.720156	 13.075890	-13.630220	-13.210730	 3.129535	 0.000975	 0.078029	-0.000079	 14.372080	 11.313870	 7.111110	 0.000248	 0.356156	-0.000815	-13.044920	-8.909986	-13.806790	 0.477498	 26.924960	-0.109387	 5.351089	-13.918460	-3.927863	-0.000582	 0.311947	 0.000830	 0.993279	-0.827903	-0.565910	-0.000000	 0.000000	 0.000000	 1.980248	-1.665728	-1.118715	 1.408629	-0.458426	 6.014528	-82.516600	-14.491350	 2.355393	-30.415250	 33.243320	-63.207920	 47.691660	-7.174611	-35.831680	-0.240249	-1.726159	 2.948822	-0.292074	-1.627782	 3.076050	 1.318259	 5.864028	-23.368220	 84.415670	 3.235131	 12.443500	 19.705800	 34.964840	 77.794930	-45.408260	-5.345266	 27.555940
